<svg width="80" height="80" viewBox="0 0 80 80" fill="none" xmlns="http://www.w3.org/2000/svg">
  <!-- Facial Laser Hair Removal: Face profile with laser handpiece wand delivering laser pulses to facial skin -->
  <!-- Delicate Face Profile -->
  <path d="M20 20C22 14 30 10 38 10C48 10 54 16 54 24C54 31 52 35 50 40C48 46 42 54 36 60C34 62 30 62 28 59C24 53 18 40 18 30C18 25 19 22 20 20Z" fill="#FA2083" fill-opacity="0.1" stroke="#FA2083" stroke-width="2.2" stroke-linejoin="round"/>
  <!-- Facial Contour Details -->
  <path d="M24 28C26 26 30 26 32 27" stroke="#FA2083" stroke-width="1.8" stroke-linecap="round"/>
  <path d="M30 32C30 36 28 39 31 41" stroke="#FA2083" stroke-width="1.6" stroke-linecap="round"/>
  <path d="M28 46C30 47 33 47 35 45" stroke="#FA2083" stroke-width="1.6" stroke-linecap="round"/>
  <!-- Precision Laser Handpiece Device -->
  <path d="M68 16L56 28L50 22L62 10L68 16Z" fill="#00A2FB" fill-opacity="0.25" stroke="#00A2FB" stroke-width="2.2" stroke-linejoin="round"/>
  <path d="M50 22L44 28L47 31L53 25" stroke="#00A2FB" stroke-width="2.2" stroke-linejoin="round"/>
  <!-- Laser Beam Pointing to Face -->
  <path d="M44 28L34 38" stroke="#00A2FB" stroke-width="2.4" stroke-linecap="round"/>
  <path d="M41 25L31 35" stroke="#00A2FB" stroke-width="1.6" stroke-linecap="round" stroke-dasharray="2 2"/>
  <path d="M47 31L37 41" stroke="#00A2FB" stroke-width="1.6" stroke-linecap="round" stroke-dasharray="2 2"/>
  <!-- Laser Light Sparkle Target -->
  <circle cx="34" cy="38" r="3.5" stroke="#FA2083" stroke-width="1.6"/>
  <circle cx="34" cy="38" r="1.5" fill="#FA2083"/>
  <path d="M58 46L59.5 49L62.5 50.5L59.5 52L58 55L56.5 52L53.5 50.5L56.5 49L58 46Z" fill="#FA2083"/>
  <path d="M46 58L47 60.5L49.5 61.5L47 62.5L46 65L45 62.5L42.5 61.5L45 60.5L46 58Z" fill="#00A2FB"/>
</svg>
